<?xml version="1.0" encoding="utf-8"?>
<!-- Generator: Adobe Illustrator 19.2.0, SVG Export Plug-In . SVG Version: 6.00 Build 0)  -->
<svg version="1.1" id="Capa_1" xmlns="http://www.w3.org/2000/svg" xmlns:xlink="http://www.w3.org/1999/xlink" x="0px" y="0px"
	 viewBox="0 0 237.2 209.8" style="enable-background:new 0 0 237.2 209.8;" xml:space="preserve">
<style type="text/css">
	.st0{fill:#222127;}
	.st1{fill:#C4C4C4;}
	.st2{fill:#161619;}
	.st3{fill:#FFFFFF;}
	.st4{font-family:'ManifoldCF-ExtraBoldOblique';}
	.st5{font-size:8.0822px;}
	.st6{opacity:0.49;fill:#01111E;enable-background:new    ;}
	.st7{opacity:0.2;fill:#4774F6;enable-background:new    ;}
	.st8{opacity:0.2;fill:#FFFFFF;enable-background:new    ;}
	.st9{fill:#F44A5F;}
	.st10{font-size:9.4009px;}
	.st11{font-size:5.0353px;}
</style>
<rect y="21" class="st0" width="237.2" height="188.7"/>
<g>
	<circle class="st1" cx="209" cy="43.5" r="4.7"/>
	<circle class="st1" cx="28.2" cy="43.5" r="4.7"/>
	<circle class="st1" cx="209" cy="187.3" r="4.7"/>
	<circle class="st1" cx="28.2" cy="187.3" r="4.7"/>
</g>
<path class="st2" d="M95.7,21.9c4.5,0,8.8-0.5,8.8-0.5v-7h28.1v7c0,0,4.3,0.5,8.8,0.5s8.8-0.5,8.8-0.5s0.3-8.1-2.5-11.4
	c-3.7-4.5-15.6-7.6-29.2-7.6C104.8,2.4,93,5.5,89.3,10c-2.8,3.4-2.5,11.4-2.5,11.4S91.2,21.9,95.7,21.9z"/>
<g>
	<g>
		<g>
			<text transform="matrix(1 0 0 1 69.8781 144.2868)" class="st3 st4 st5">Tu preferencia en elevadores</text>
			<polygon class="st6" points="159.9,135 56.5,135 74.2,93.9 169.6,93.9 			"/>
			<path class="st3" d="M76.8,98.3L62.4,130h8.4l1.7-4.6h6l-0.3,4.6h7.8V98.3H76.8z M75.1,118.4l4.9-13.7l-0.6,8.8l-0.3,5h-4V118.4z
				"/>
			<path class="st3" d="M111.8,101.1l-0.9,1.3L109,105l-1.5,2.2c0,0-0.6-1-1.7-1.7c-0.4-0.3-0.9-0.5-1.5-0.6c-1.3-0.2-2.4,0.2-3,0.8
				c-0.2,0.2-0.3,0.4-0.4,0.6c-0.4,1.1-0.2,2.2,0.9,3.2c0.8,0.8,1.9,1.9,3,2.6c3.4,2.2,3.9,6.9,3.1,9.9c-0.2,0.8-0.5,1.7-1,2.7l0,0
				c-1.2,2.5-3.4,5.1-7.7,5.8c-0.6,0.1-1.3,0.2-2.1,0.2c-6.6,0-9.4-4.1-9.4-4.1l1.4-1.7l1.5-1.8l1.2-1.5c0,0,1.2,1,2.7,1.8
				c0.1,0.1,0.3,0.2,0.4,0.2c1.9,1,3.1,0.6,3.8-0.2c0.1-0.1,0.2-0.3,0.3-0.4c0.7-1.2,0.6-2.5-0.2-3.5c-0.1-0.1-0.2-0.2-0.4-0.4
				c-1.8-1.5-3.4-2.5-4.8-4.3c-1.3-1.8-2.6-5.2-1.1-10.1c1.2-3.7,5.9-7.8,12.2-6.6C107.1,98.4,109.4,99.4,111.8,101.1z"/>
			<path class="st3" d="M108.8,130.1c0,0,7.7,0,8,0s3.9-16.9,3.9-16.9l0.8,16.9h2.9l8.2-16.9l-3.6,16.9h8.1l6.9-31.7h-10.2
				l-7.5,15.4l-0.7-15.4h-9.8L108.8,130.1z"/>
			<polygon class="st3" points="164.7,98.3 149.2,98.3 141.7,130.1 157.6,130.1 159.1,123.1 151.4,123 152.6,117.4 159.9,117.4 
				161.6,110.7 154.2,110.7 155.4,105.4 162.7,105.5 			"/>
			<path class="st7" d="M120.6,113.2c0-0.2-0.4-9.2-0.4-9.2l-6.3,26.1h2.8L120.6,113.2z"/>
			<path class="st7" d="M132.6,113.2l3.1-8.9l-14.2,25.8c0,0,2.8,0.2,2.9,0C124.4,129.8,132.6,113.2,132.6,113.2z"/>
			<polygon class="st7" points="160.4,115.3 159.9,117.4 152.6,117.4 150.2,115.3 			"/>
			<polygon class="st7" points="163.2,103.5 162.7,105.5 155.4,105.4 152.9,103.4 			"/>
			<path class="st7" d="M97.8,126.2c-4.1,0.6-7.1-3.2-7.1-3.2l1.2-1.5c0,0,1.2,1,2.7,1.8c0.1,0.1,0.3,0.2,0.4,0.2
				c1.9,1,3.1,0.6,3.8-0.2c0.1-0.1,0.2-0.3,0.3-0.4c0.7-1.2,0.6-2.5-0.2-3.5l0,0C101.4,120.8,101.9,125.6,97.8,126.2z"/>
			<polygon class="st7" points="79.1,118.4 78.6,125.4 76.6,125.4 77.2,118.4 			"/>
			<polygon class="st8" points="79.6,135 67.1,135 83.2,93.9 93.8,93.9 			"/>
			<polygon class="st8" points="89.4,135 82.4,135 98.6,93.9 105.1,93.9 			"/>
			<g>
				<polygon class="st7" points="175.2,98.8 154.2,98.8 158.6,85.4 160.4,83.4 177.7,97.3 				"/>
				<polygon class="st9" points="177.7,97.3 156.1,97.3 160.4,83.4 180.8,83.4 				"/>
				<g>
					<text transform="matrix(1 0 0 1 164.0227 91.1471)" class="st3 st4 st10">25</text>
				</g>
				<g>
					<text transform="matrix(1 0 0 1 162.7209 95.5983)" class="st3 st4 st11">añ</text>
					<text transform="matrix(1 0 0 1 168.1209 95.5983)" class="st3 st4 st11">os</text>
				</g>
			</g>
		</g>
	</g>
</g>
</svg>
