<?xml version="1.0" encoding="utf-8"?>
<!-- Generator: Adobe Illustrator 19.2.0, SVG Export Plug-In . SVG Version: 6.00 Build 0)  -->
<svg version="1.1" id="Capa_1" xmlns="http://www.w3.org/2000/svg" xmlns:xlink="http://www.w3.org/1999/xlink" x="0px" y="0px"
	 viewBox="0 0 237.2 209.8" style="enable-background:new 0 0 237.2 209.8;" xml:space="preserve">
<style type="text/css">
	.st0{fill:#222127;}
	.st1{fill:#C4C4C4;}
	.st2{fill:#161619;}
	.st3{fill:#FFFFFF;}
	.st4{fill:#DAD6D8;}
</style>
<rect y="21" class="st0" width="237.2" height="188.7"/>
<g>
	<circle class="st1" cx="209" cy="43.5" r="4.7"/>
	<circle class="st1" cx="28.2" cy="43.5" r="4.7"/>
	<circle class="st1" cx="209" cy="187.3" r="4.7"/>
	<circle class="st1" cx="28.2" cy="187.3" r="4.7"/>
</g>
<path class="st2" d="M95.7,21.9c4.5,0,8.8-0.5,8.8-0.5v-7h28.1v7c0,0,4.3,0.5,8.8,0.5s8.8-0.5,8.8-0.5s0.3-8.1-2.5-11.4
	c-3.7-4.5-15.6-7.6-29.2-7.6C104.8,2.4,93,5.5,89.3,10c-2.8,3.4-2.5,11.4-2.5,11.4S91.2,21.9,95.7,21.9z"/>
<g>
	<g>
		<path class="st3" d="M43.2,111.6L43.2,111.6L43.2,111.6v2.1c0,0,0,0.1,0.1,0.2c0.1,0.1,0.2,0.1,0.2,0.1h5.9l0,0
			c0.1,0,0.2,0.1,0.2,0.2v2.8c0,0.1-0.1,0.2-0.2,0.2h-5.9c0,0-0.1,0-0.2,0.1c-0.1,0.1-0.1,0.2-0.1,0.2v2.3c0,0,0,0.1,0.1,0.2
			c0.1,0.1,0.2,0.1,0.2,0.1H50c0.1,0,0.2,0.1,0.2,0.2v2.8c0,0.1-0.1,0.2-0.2,0.2H39c-0.1,0-0.2-0.1-0.2-0.2v-15.2
			c0-0.1,0.1-0.2,0.2-0.2h11c0.1,0,0.2,0.1,0.2,0.2v3.3c0,0.1-0.1,0.2-0.2,0.2h-6.6l0,0h-0.1l0,0C43.3,111.4,43.2,111.5,43.2,111.6z
			"/>
	</g>
	<g>
		<path class="st3" d="M68.1,107.9V123l0,0l0,0c0,0.1-0.1,0.2-0.2,0.2h-3.6c-0.1,0-0.1,0-0.2-0.1l0,0l0,0L64,123l-5.9-8.6v8.6
			c0,0.1-0.1,0.2-0.2,0.2h-4.3c-0.1,0-0.2-0.1-0.2-0.2v-15.1c0-0.1,0.1-0.2,0.2-0.2l0,0l0,0h4l0,0l0,0c0.1,0,0.1,0.1,0.2,0.1
			l0.3,0.5l5.3,8.1l0,0l0,0c0,0,0.1,0.1,0.2,0.1c0.1,0,0.2-0.1,0.2-0.2l0,0l0,0l0,0l0,0V108c0-0.1,0.1-0.2,0.2-0.2l0,0l0,0h3.8l0,0
			l0,0C67.9,107.8,67.9,107.9,68.1,107.9C68,107.8,68.1,107.8,68.1,107.9C68.1,107.8,68.1,107.8,68.1,107.9L68.1,107.9z"/>
	</g>
	<g>
		<g>
			<path class="st3" d="M117.1,119.6c-1.2,0.1-2-0.1-2.6-1.4v-0.1c1.2-0.7,2.4-2,2.4-4.8c0-5.6-5.6-5.9-5.6-5.9h-8V123
				c0,0.1,0.1,0.2,0.2,0.2h4.4v-4.6h3c0.1,0.3,0.2,0.6,0.3,0.8c0.7,1.7,1.9,2.8,3.4,3.4c0.8,0.3,1.5,0.3,2.1,0.3c0.3,0,0.5,0,0.7,0
				c0,0,0,0,0.1,0v-3.6C117.3,119.5,117.2,119.6,117.1,119.6z M111.4,115.5h-3.6v-4.2h3.5c0,0,1.5,0.3,1.5,2.3
				C112.8,115.7,111.4,115.5,111.4,115.5z"/>
		</g>
	</g>
	<g>
		<path class="st3" d="M101.3,122.9L101.3,122.9C101.3,122.8,101.3,122.8,101.3,122.9l-6.5-15.4v-0.1c0-0.1-0.1-0.1-0.2-0.1l0,0
			h-3.9l0,0h-0.1c0,0-0.1,0-0.1,0.1v0.1l-6.4,15.3l0,0l0,0v0.1c0,0.1,0.1,0.2,0.2,0.2H88c0.1,0,0.2-0.1,0.2-0.1l0,0l1-2.4h7l1,2.4
			l0,0l0,0c0,0.1,0.1,0.1,0.2,0.1h3.7C101.2,123.2,101.3,123.1,101.3,122.9L101.3,122.9z M94.8,116.8L94.8,116.8
			C94.7,116.9,94.7,116.9,94.8,116.8c-0.1,0.1-0.1,0.1-0.1,0.2h-3.9c0,0-0.1,0-0.1-0.1c0,0-0.1-0.1-0.1-0.2l0,0l0.1-0.1l1.8-4.6l0,0
			l0,0c0-0.1,0.1-0.1,0.2-0.1l0,0h0.1l0,0c0.1,0,0.1,0.1,0.2,0.1c0,0,1.4,3.4,1.8,4.6V116.8C94.8,116.7,94.8,116.7,94.8,116.8
			L94.8,116.8z"/>
	</g>
	<g>
		<path class="st3" d="M83.7,120.8c-1.4,1.5-3.5,2.4-5.7,2.4c-2.4,0-4.5-1.1-6-2.7c-1.2-1.4-2-3.2-2-5.2c0-4.4,3.6-8,8-8
			c2,0,3.8,0.7,5.2,2l-2.7,2.7c-0.7-0.5-1.6-0.8-2.5-0.8c-2.3,0-4.1,1.8-4.1,4.1c0,0.9,0.3,1.8,0.9,2.5c0.8,1,1.9,1.6,3.3,1.6
			c1.2,0,2.2-0.5,2.9-1.3L83.7,120.8z"/>
	</g>
	<g>
		<path class="st3" d="M168.3,108.4v14.8h-4.1v-8.8c0,0,0-0.2-0.2-0.2c-0.1-0.1-0.2,0-0.3,0.1l-2.6,2.7c0,0-1.1,1.2-1.2,1.3
			c-0.1,0.1-0.2,0.2-0.3,0.2c-0.2,0-0.3-0.2-0.4-0.3c-0.3-0.2-1.2-1.3-1.2-1.3l-2.5-2.6c0,0-0.1-0.2-0.3-0.1
			c-0.2,0.1-0.1,0.2-0.1,0.2v8.9H151v-14.9c0-0.1,0.1-0.2,0.2-0.2h4.2c0,0,0,0,0.1,0l0.1,0.1l3.9,4.9c0.1,0.1,0.2,0.1,0.2,0.1
			s0.1,0,0.2-0.1l3.9-4.9c0,0,0-0.1,0.1-0.1s0.1,0,0.1,0h4.2C168.1,108.2,168.3,108.3,168.3,108.4z"/>
	</g>
	<g>
		<g>
			<path class="st3" d="M132.7,120.8c-1.2,1.2-2.8,2.1-4.6,2.3c-0.4,0.1-0.8,0.1-1.1,0.1c-0.8,0-1.6-0.1-2.3-0.3
				c-1.5-0.4-2.7-1.3-3.7-2.4c-1.2-1.4-2-3.2-2-5.2c0-4.4,3.6-8,8-8c2,0,3.8,0.7,5.2,2l-1.5,1.5l-0.2,0.2l-1,1c0,0,0,0-0.1,0
				c-0.7-0.5-1.5-0.8-2.4-0.8c-1.3,0-2.5,0.6-3.2,1.6l0,0c-0.2,0.2-0.4,0.5-0.5,0.8c-0.3,0.5-0.4,1.2-0.4,1.8c0,0.1,0,0.2,0,0.2
				c0,0.1,0,0.2,0,0.4c0,0,0,0,0,0.1c0,0,0,0,0,0.1v0.1v0.1c0.1,0.6,0.4,1.1,0.7,1.6c0.8,1,1.9,1.6,3.3,1.6c1.1,0,2.1-0.4,2.8-1.1
				c0.1,0,0.1-0.1,0.1-0.1l1,0.9l0.2,0.2L132.7,120.8z"/>
		</g>
	</g>
	<g>
		<g>
			<path class="st3" d="M141.2,107.3c-4.4,0-8,3.6-8,8c0,4.4,3.6,8,8,8s8-3.6,8-8C149.2,110.9,145.6,107.3,141.2,107.3z
				 M141.2,119.4c-2.3,0-4.1-1.9-4.1-4.1c0-2.3,1.9-4.1,4.1-4.1s4.1,1.9,4.1,4.1C145.4,117.5,143.5,119.4,141.2,119.4z"/>
		</g>
	</g>
	<g>
		<path class="st3" d="M214.1,109.3c-0.1-0.4-0.3-0.8-0.4-1.1c-2.7-6.9-9.1-12-16.2-12H39.7c-9.4,0-17.6,8.9-17.6,19.1
			s8.2,19.1,17.6,19.1h136.6v-2.7H39.7c-7.8,0-14.9-7.8-14.9-16.4c0-8.6,7.1-16.4,14.9-16.4h157.7c7.8,0,14.9,7.8,14.9,16.4
			c0,8.6-7.1,16.4-14.9,16.4h-24v2.7h24c0.1,0,0.2,0,0.3,0c6.2-0.1,11.9-4.2,14.9-9.9c0.1-0.2,0.2-0.4,0.3-0.7
			c0.9-1.9,1.6-4,1.8-6.2c0-0.2,0-0.3,0.1-0.5c0.1-0.6,0.1-1.3,0.1-1.9C215,113.2,214.7,111.2,214.1,109.3z"/>
	</g>
	<g>
		<path class="st3" d="M215,115.3C215,115.3,215,115.2,215,115.3c0-0.2,0-0.3,0-0.5c0-0.1,0-0.3,0-0.4c0-0.2,0-0.4,0-0.5
			c0-0.1,0-0.2,0-0.3c-0.1-0.9-0.2-1.9-0.5-2.8v-0.1c-0.1-0.2-0.1-0.4-0.2-0.6c-0.1-0.3-0.1-0.5-0.2-0.8c-0.1-0.4-0.3-0.8-0.4-1.1
			c-0.7-1.7-1.7-3.4-2.9-4.9c-3.4-4.2-8.3-6.8-13.7-7.1c-0.4,0-0.8,0-1.3,0c-0.4,0-0.8,0-1.3,0c-3,0.2-6,1.1-8.6,2.7
			c-0.8,0.5-1.5,1-2.2,1.5c-4,3.2-6.5,7.8-7,12.9c-0.5,5.1,0.9,10.1,4.1,14.1c1.4,1.7,3.1,3.2,4.9,4.3c2.4,1.5,5.2,2.4,8.1,2.7
			c0.6,0.1,1.2,0.1,1.9,0.1c0.6,0,1.3,0,1.9-0.1c3.7-0.4,7.2-1.8,10.1-4.2c2-1.6,3.6-3.6,4.8-5.7c0.1-0.2,0.2-0.4,0.3-0.7
			c1-1.9,1.6-4,1.8-6.2c0-0.1,0-0.2,0-0.3c0-0.1,0-0.1,0-0.2c0-0.3,0.1-0.6,0.1-1c0-0.2,0-0.4,0-0.6C215,115.5,215,115.4,215,115.3z
			 M183.1,125.6c-2.8-3.4-4-7.7-3.6-12.1c0.5-4.4,2.6-8.3,6-11c3-2.4,6.5-3.6,10.3-3.6c5,0,9.7,2.2,12.8,6.1c2.8,3.4,4,7.7,3.5,12
			c-0.5,4.4-2.6,8.3-6,11c-1.5,1.2-3.1,2.1-4.8,2.7c-1.4,0.5-2.9,0.8-4.5,0.9c-0.3,0-0.6,0-1,0c-0.3,0-0.7,0-1,0
			C190.3,131.4,186,129.2,183.1,125.6z"/>
	</g>
	<path class="st3" d="M199,113.7c-0.7,0.7-1.6,1.2-2.5,1.4h-0.1c0.5-1.9,0-4-1.5-5.5s-3.6-2-5.5-1.5c0.2-0.9,0.7-1.8,1.5-2.5
		c2.2-2.2,5.8-2.2,8,0S201.2,111.5,199,113.7z"/>
	<path class="st3" d="M198.1,117.9c-0.7-0.7-1.2-1.6-1.4-2.5v-0.1c1.9,0.5,4,0,5.5-1.5s2-3.6,1.5-5.5c0.9,0.2,1.8,0.7,2.5,1.5
		c2.2,2.2,2.2,5.8,0,8C203.9,120.1,200.3,120.1,198.1,117.9z"/>
	<g>
		<g>
			<path id="SVGID_1_" class="st4" d="M196.6,115.4L196.6,115.4c1.9,0.4,4-0.1,5.4-1.6c1.5-1.5,2-3.6,1.5-5.5c0,0,3.4,2.8,0.7,6.7
				C202.5,117.6,197.8,117.2,196.6,115.4z"/>
		</g>
	</g>
	<path class="st3" d="M194.9,112.8c0.7,0.7,1.2,1.6,1.4,2.4v0.1c-1.9-0.5-4,0-5.5,1.5s-2,3.6-1.5,5.5c-0.9-0.2-1.8-0.7-2.5-1.5
		c-2.2-2.2-2.2-5.8,0-8C189.1,110.6,192.7,110.6,194.9,112.8z"/>
	<g>
		<g>
			<path id="SVGID_3_" class="st4" d="M196.3,115.2C196.3,115.3,196.3,115.3,196.3,115.2c-1.9-0.4-4,0.1-5.4,1.6
				c-1.5,1.5-2,3.6-1.5,5.5c0,0-3.4-2.8-0.7-6.7C190.4,113.1,195.1,113.5,196.3,115.2z"/>
		</g>
	</g>
	<g>
		<g>
			<path id="SVGID_5_" class="st4" d="M196.6,115.2C196.5,115.2,196.5,115.2,196.6,115.2c0.4-1.9-0.1-4-1.6-5.4
				c-1.5-1.5-3.6-2-5.5-1.5c0,0,2.8-3.4,6.7-0.7C198.7,109.3,198.3,114,196.6,115.2z"/>
		</g>
	</g>
	<path class="st3" d="M193.9,116.9c0.7-0.7,1.6-1.2,2.4-1.4h0.1c-0.5,1.9,0,4,1.5,5.5s3.6,2,5.5,1.5c-0.2,0.9-0.7,1.8-1.5,2.5
		c-2.2,2.2-5.8,2.2-8,0C191.7,122.7,191.7,119.1,193.9,116.9z"/>
	<g>
		<g>
			<path id="SVGID_7_" class="st4" d="M196.4,115.5L196.4,115.5c-0.4,1.9,0.1,4,1.6,5.4c1.5,1.5,3.6,2,5.5,1.5c0,0-2.8,3.4-6.7,0.7
				C194.2,121.4,194.6,116.7,196.4,115.5z"/>
		</g>
	</g>
	
		<ellipse transform="matrix(0.7071 -0.7071 0.7071 0.7071 -23.9312 172.6085)" class="st3" cx="196.4" cy="115.2" rx="1.6" ry="1.6"/>
</g>
</svg>
