<?xml version="1.0" encoding="utf-8"?>
<!-- Generator: Adobe Illustrator 19.2.0, SVG Export Plug-In . SVG Version: 6.00 Build 0)  -->
<svg version="1.1" id="Capa_1" xmlns="http://www.w3.org/2000/svg" xmlns:xlink="http://www.w3.org/1999/xlink" x="0px" y="0px"
	 viewBox="0 0 237.2 209.8" style="enable-background:new 0 0 237.2 209.8;" xml:space="preserve">
<style type="text/css">
	.st0{fill:#222127;}
	.st1{fill:#C4C4C4;}
	.st2{fill:#161619;}
	.st3{fill:#FFFFFF;}
</style>
<rect y="21" class="st0" width="237.2" height="188.7"/>
<g>
	<circle class="st1" cx="209" cy="43.5" r="4.7"/>
	<circle class="st1" cx="28.2" cy="43.5" r="4.7"/>
	<circle class="st1" cx="209" cy="187.3" r="4.7"/>
	<circle class="st1" cx="28.2" cy="187.3" r="4.7"/>
</g>
<path class="st2" d="M95.7,21.9c4.5,0,8.8-0.5,8.8-0.5v-7h28.1v7c0,0,4.3,0.5,8.8,0.5s8.8-0.5,8.8-0.5s0.3-8.1-2.5-11.4
	c-3.7-4.5-15.6-7.6-29.2-7.6C104.8,2.4,93,5.5,89.3,10c-2.8,3.4-2.5,11.4-2.5,11.4S91.2,21.9,95.7,21.9z"/>
<g>
	<path class="st3" d="M160.3,120.6v12.8h-23.6c-5.3,0-7.8-3.8-8.9-8.3v19.8h-18v-21.4c-1,5.1-3.4,9.9-9.3,9.9H76.9v-12.8h14.8
		c0,0,3.9,0.5,3.9-3.2c0-2.3-1.6-4.2-6.3-8.4c-6.6-5.8-10.2-8.9-10.2-8.9H98c0,0,9.3,6.3,11.7,10.5V85.8h18V110
		c2.8-4.2,11.3-10,11.3-10h19c0,0-3.6,3.1-10.2,8.9c-4.8,4.2-6.3,6.1-6.3,8.4c0,3.7,3.9,3.2,3.9,3.2L160.3,120.6L160.3,120.6z"/>
</g>
</svg>
