<?xml version="1.0" encoding="utf-8"?>
<!-- Generator: Adobe Illustrator 19.2.0, SVG Export Plug-In . SVG Version: 6.00 Build 0)  -->
<svg version="1.1" id="Capa_1" xmlns="http://www.w3.org/2000/svg" xmlns:xlink="http://www.w3.org/1999/xlink" x="0px" y="0px"
	 viewBox="0 0 38 55.4" style="enable-background:new 0 0 38 55.4;" xml:space="preserve">
<style type="text/css">
	.st0{fill:#FFFFFF;}
</style>
<g>
	<polygon class="st0" points="3.8,15.7 17.2,29.1 17.2,49.2 20.6,49.2 20.6,29.1 34,15.7 31.7,13.3 20.6,24.4 20.6,7.9 17.2,7.9 
		17.2,24.4 6.1,13.3 	"/>
	<g>
		<polygon class="st0" points="37.8,37 37.8,49.6 34.5,49.6 34.5,40.3 3.3,40.3 3.3,49.6 0,49.6 0,37 		"/>
	</g>
	
		<rect x="17.2" y="11.9" transform="matrix(-1.836970e-16 1 -1 -1.836970e-16 49.6942 11.8893)" class="st0" width="3.3" height="37.8"/>
	<circle class="st0" cx="1.7" cy="53.7" r="1.7"/>
	<circle class="st0" cx="36.4" cy="53.7" r="1.7"/>
	<circle class="st0" cx="18.9" cy="1.7" r="1.7"/>
	<ellipse transform="matrix(0.7071 -0.7071 0.7071 0.7071 -6.5542 4.2851)" class="st0" cx="1.9" cy="10.1" rx="1.7" ry="1.7"/>
	<ellipse transform="matrix(0.7071 -0.7071 0.7071 0.7071 3.5613 28.706)" class="st0" cx="36.4" cy="10.1" rx="1.7" ry="1.7"/>
</g>
</svg>
