<?xml version="1.0" encoding="utf-8"?>
<!-- Generator: Adobe Illustrator 19.2.0, SVG Export Plug-In . SVG Version: 6.00 Build 0)  -->
<svg version="1.1" id="Capa_1" xmlns="http://www.w3.org/2000/svg" xmlns:xlink="http://www.w3.org/1999/xlink" x="0px" y="0px"
	 viewBox="0 0 103.2 53.5" style="enable-background:new 0 0 103.2 53.5;" xml:space="preserve">
<style type="text/css">
	.st0{fill:#CAF903;}
</style>
<g>
	<path class="st0" d="M9.2,0h0.9l18,27.8c1.5,2.2,3.1,5.4,3.1,5.4s1.7-3.1,3.1-5.4L52.3,0h0.9l5,52.8h-8.1l-2.5-25.7
		c-0.2-3.1-0.5-8.4-0.5-8.4s-2.1,4.5-4,7.3L31.5,44.7h-0.8L19,26c-1.8-2.8-4.2-7.3-4.2-7.3s-0.2,5.2-0.4,8.4l-2.6,25.7H4.2L9.2,0z"
		/>
	<path class="st0" d="M87.4,46.9c4.2,0,7.3-1.7,9.1-3.5l4.5,4.8c-3,3-7.1,5.2-13.6,5.2c-11,0-18.2-7.1-18.2-16.8
		c0-9.6,7.5-16.8,17.2-16.8c11,0,17.2,8.1,16.6,19.4H77.2C78.2,43.9,81.5,46.9,87.4,46.9z M95.3,33.9c-0.7-4.4-3.4-7.6-8.7-7.6
		c-5,0-8.4,2.8-9.4,7.6H95.3z"/>
</g>
</svg>
