<?xml version="1.0" encoding="utf-8"?>
<!-- Generator: Adobe Illustrator 19.2.0, SVG Export Plug-In . SVG Version: 6.00 Build 0)  -->
<svg version="1.1" id="Capa_1" xmlns="http://www.w3.org/2000/svg" xmlns:xlink="http://www.w3.org/1999/xlink" x="0px" y="0px"
	 viewBox="0 0 176.3 195" style="enable-background:new 0 0 176.3 195;" xml:space="preserve">
<style type="text/css">
	.st0{fill:#FFFFFF;}
	.st1{fill:#CAF903;}
	.st2{fill:#222127;}
</style>
<g>
	<g>
		<g>
			<g>
				<g>
					<g>
						
							<rect x="41.2" y="82.1" transform="matrix(0.7071 -0.7071 0.7071 0.7071 -64.722 98.4636)" class="st0" width="90.5" height="90.5"/>
					</g>
					<g>
						<line class="st0" x1="22.5" y1="127.4" x2="22" y2="127.8"/>
					</g>
					<g>
						<line class="st0" x1="151" y1="127.8" x2="150.5" y2="127.4"/>
					</g>
				</g>
			</g>
			<g>
				<g>
					<g>
						<path class="st1" d="M86.5,195l-67.6-67.6l67.6-67.6l67.6,67.6L86.5,195z M23.1,127.4l63.4,63.4l63.4-63.4L86.5,64L23.1,127.4
							z"/>
					</g>
				</g>
			</g>
			<g>
				<path class="st1" d="M131.9,147.4l-45.5,45.5L41,147.4c8.3-16.7,25.5-28.1,45.5-28.1S123.6,130.7,131.9,147.4z"/>
			</g>
			<g>
				<path class="st2" d="M114.1,158.4l-27.6,27.6l-27.6-27.6c5.1-10.1,15.5-17.1,27.6-17.1S109.1,148.3,114.1,158.4z"/>
			</g>
		</g>
	</g>
	<g>
		<rect x="142.6" y="58" transform="matrix(0.7071 -0.7071 0.7071 0.7071 0.6037 130.3896)" class="st1" width="30.3" height="13"/>
	</g>
	<g>
		
			<rect x="8.8" y="49.3" transform="matrix(0.7071 -0.7071 0.7071 0.7071 -41.1047 29.6966)" class="st1" width="13" height="30.3"/>
	</g>
	<g>
		<rect x="80" y="3.3" class="st1" width="13" height="30.3"/>
	</g>
</g>
</svg>
