<?xml version="1.0" encoding="utf-8"?>
<!-- Generator: Adobe Illustrator 19.2.0, SVG Export Plug-In . SVG Version: 6.00 Build 0)  -->
<svg version="1.1" id="Capa_1" xmlns="http://www.w3.org/2000/svg" xmlns:xlink="http://www.w3.org/1999/xlink" x="0px" y="0px"
	 viewBox="0 0 149.7 169.8" style="enable-background:new 0 0 149.7 169.8;" xml:space="preserve">
<style type="text/css">
	.st0{fill:#222127;}
	.st1{fill:#FFFFFF;}
</style>
<g>
	<g>
		<g>
			<g>
				
					<rect x="36.3" y="16" transform="matrix(0.7071 -0.7071 0.7071 0.7071 -16.6037 68.9001)" class="st0" width="77.1" height="77.1"/>
			</g>
			<g>
				<line class="st0" x1="20.4" y1="54.5" x2="20" y2="54.9"/>
			</g>
			<g>
				<line class="st0" x1="129.8" y1="54.9" x2="129.4" y2="54.5"/>
			</g>
		</g>
	</g>
</g>
<g>
	<path class="st1" d="M39.2,128.8h2.1v13.3h-2.1V128.8z"/>
	<path class="st1" d="M45.3,133.9h2l0,1.4c0.5-1,1.4-1.6,2.5-1.6c1.2,0,2,0.6,2.4,1.6c0.6-1,1.6-1.6,2.8-1.6c1.9,0,3.1,1.3,3.1,3.4
		v5h-2v-4.8c0-1.1-0.4-1.8-1.5-1.8c-1.2,0-1.8,0.7-1.8,2.1v4.5h-2v-4.8c0-1.1-0.4-1.8-1.5-1.8c-1.2,0-1.9,0.7-1.9,2.1v4.5h-2V133.9z
		"/>
	<path class="st1" d="M61.2,138c0-2.5,1.6-4.3,3.8-4.3c1.4,0,2.3,0.7,2.8,1.7l0-1.5h2v8.2h-2l0-1.5c-0.5,1-1.5,1.7-2.8,1.7
		C62.9,142.3,61.2,140.4,61.2,138z M67.8,138c0-1.5-0.9-2.5-2.3-2.5c-1.4,0-2.3,1-2.3,2.5c0,1.5,0.8,2.6,2.3,2.6
		C67,140.5,67.8,139.5,67.8,138z"/>
	<path class="st1" d="M73.2,144.3l1.4-1.1c0.6,0.9,1.5,1.5,2.8,1.5c1.5,0,2.4-0.8,2.4-2.7v-1.4c-0.5,0.9-1.5,1.6-2.8,1.6
		c-2.1,0-3.9-1.8-3.9-4.3c0-2.5,1.7-4.3,3.8-4.3c1.5,0,2.4,0.7,2.9,1.7l-0.1-1.5h2v8.4c0,3-1.9,4.2-4.3,4.2
		C75.4,146.4,73.9,145.5,73.2,144.3z M79.8,138c0-1.5-0.9-2.5-2.4-2.5c-1.4,0-2.3,1-2.3,2.5c0,1.5,0.9,2.6,2.3,2.6
		C78.9,140.5,79.8,139.5,79.8,138z"/>
	<path class="st1" d="M89.7,140.6c1.1,0,1.9-0.4,2.3-0.9l1.2,1.2c-0.8,0.8-1.8,1.3-3.5,1.3c-2.8,0-4.6-1.8-4.6-4.3
		c0-2.5,1.9-4.3,4.4-4.3c2.8,0,4.4,2.1,4.3,5h-6.6C87.3,139.8,88.2,140.6,89.7,140.6z M91.7,137.3c-0.2-1.1-0.9-1.9-2.2-1.9
		c-1.3,0-2.2,0.7-2.4,1.9H91.7z"/>
	<path class="st1" d="M97,133.9h2l0,1.5c0.5-1.1,1.5-1.7,2.8-1.7c1.8,0,3.1,1.3,3.1,3.5v4.9h-2v-4.7c0-1.2-0.5-1.9-1.7-1.9
		c-1.3,0-2.1,0.8-2.1,2.1v4.5h-2V133.9z"/>
	<path class="st1" d="M18.3,159c0-4,3.1-6.8,6.8-6.8c2.4,0,4.2,0.9,5.3,2.6l-1.6,1.1c-0.7-1.2-2-1.9-3.7-1.9c-2.8,0-4.7,2.1-4.7,5
		c0,2.8,2,5,4.7,5c1.8,0,3.1-0.8,3.9-2.1l1.6,1.1c-1.2,1.8-3,2.8-5.5,2.8C21.4,165.8,18.3,162.9,18.3,159z"/>
	<path class="st1" d="M33.4,161.5c0-2.5,2-4.3,4.5-4.3c2.5,0,4.4,1.8,4.4,4.3c0,2.5-1.9,4.3-4.4,4.3C35.3,165.8,33.4,164,33.4,161.5
		z M40.2,161.5c0-1.5-0.9-2.6-2.4-2.6s-2.4,1.1-2.4,2.6s0.9,2.6,2.4,2.6S40.2,163,40.2,161.5z"/>
	<path class="st1" d="M45.5,157.4h2l0,1.5c0.5-1.3,1.5-1.7,2.4-1.7c0.6,0,1,0.1,1.4,0.4l-0.7,1.8c-0.3-0.2-0.6-0.3-1.1-0.3
		c-1.2,0-2,0.7-2,2.5v4h-2V157.4z"/>
	<path class="st1" d="M54,157.4h2l-0.1,1.5c0.5-1,1.5-1.7,2.9-1.7c2.1,0,3.8,1.8,3.8,4.3c0,2.5-1.7,4.3-3.9,4.3
		c-1.4,0-2.4-0.7-2.8-1.6v5.6h-2V157.4z M60.6,161.5c0-1.5-0.9-2.5-2.3-2.5c-1.5,0-2.4,1-2.4,2.5c0,1.5,0.9,2.6,2.4,2.6
		C59.7,164.1,60.6,163,60.6,161.5z"/>
	<path class="st1" d="M65.6,161.5c0-2.5,2-4.3,4.5-4.3c2.5,0,4.4,1.8,4.4,4.3c0,2.5-1.9,4.3-4.4,4.3C67.5,165.8,65.6,164,65.6,161.5
		z M72.4,161.5c0-1.5-0.9-2.6-2.4-2.6s-2.4,1.1-2.4,2.6s0.9,2.6,2.4,2.6S72.4,163,72.4,161.5z"/>
	<path class="st1" d="M77.7,157.4h2l0,1.5c0.5-1.3,1.5-1.7,2.4-1.7c0.6,0,1,0.1,1.4,0.4l-0.7,1.8c-0.3-0.2-0.6-0.3-1.1-0.3
		c-1.2,0-2,0.7-2,2.5v4h-2V157.4z"/>
	<path class="st1" d="M85.5,161.5c0-2.5,1.6-4.3,3.8-4.3c1.4,0,2.3,0.7,2.8,1.7l0-1.5h2v8.2h-2l0-1.5c-0.5,1-1.5,1.7-2.8,1.7
		C87.2,165.8,85.5,164,85.5,161.5z M92.2,161.5c0-1.5-0.9-2.5-2.3-2.5c-1.4,0-2.3,1-2.3,2.5c0,1.5,0.8,2.6,2.3,2.6
		C91.3,164.1,92.2,163,92.2,161.5z"/>
	<path class="st1" d="M98.4,162.8v-3.8h-1.2v-1.7h1.2v-4.3h2v4.3h2.2v1.7h-2.2v3.8c0,0.9,0.3,1.2,0.8,1.2c0.5,0,0.8-0.2,1-0.4
		l0.9,1.3c-0.4,0.4-1.1,0.8-2.1,0.8C99.5,165.8,98.4,165,98.4,162.8z"/>
	<path class="st1" d="M105.6,154.2c0-0.7,0.6-1.3,1.3-1.3s1.3,0.5,1.3,1.3c0,0.8-0.6,1.3-1.3,1.3S105.6,155,105.6,154.2z M106,157.4
		h2v8.2h-2V157.4z"/>
	<path class="st1" d="M110.8,157.4h2.2l1.7,3.6c0.3,0.7,0.6,1.8,0.6,1.8s0.2-1.1,0.5-1.8l1.7-3.6h2l-4.2,8.4H115L110.8,157.4z"/>
	<path class="st1" d="M121.4,161.5c0-2.5,1.6-4.3,3.8-4.3c1.4,0,2.3,0.7,2.8,1.7l0-1.5h2v8.2h-2l0-1.5c-0.5,1-1.5,1.7-2.8,1.7
		C123.1,165.8,121.4,164,121.4,161.5z M128.1,161.5c0-1.5-0.9-2.5-2.3-2.5c-1.4,0-2.3,1-2.3,2.5c0,1.5,0.8,2.6,2.3,2.6
		C127.2,164.1,128.1,163,128.1,161.5z"/>
</g>
</svg>
